<?xml version="1.0" encoding="UTF-8" standalone="no"?>
<!-- Created with Inkscape (http://www.inkscape.org/) -->

<svg
   width="127.8238mm"
   height="127.82381mm"
   viewBox="0 0 127.8238 127.82381"
   version="1.1"
   id="svg1"
   xml:space="preserve"
   inkscape:version="1.3.2 (091e20e, 2023-11-25, custom)"
   sodipodi:docname="Youtube.svg"
   xmlns:inkscape="http://www.inkscape.org/namespaces/inkscape"
   xmlns:sodipodi="http://sodipodi.sourceforge.net/DTD/sodipodi-0.dtd"
   xmlns="http://www.w3.org/2000/svg"
   xmlns:svg="http://www.w3.org/2000/svg"><sodipodi:namedview
     id="namedview1"
     pagecolor="#ffffff"
     bordercolor="#000000"
     borderopacity="0.25"
     inkscape:showpageshadow="2"
     inkscape:pageopacity="0.0"
     inkscape:pagecheckerboard="0"
     inkscape:deskcolor="#d1d1d1"
     inkscape:document-units="mm"
     inkscape:zoom="0.70710678"
     inkscape:cx="287.08535"
     inkscape:cy="563.5641"
     inkscape:window-width="1920"
     inkscape:window-height="1009"
     inkscape:window-x="-8"
     inkscape:window-y="-8"
     inkscape:window-maximized="1"
     inkscape:current-layer="g1" /><defs
     id="defs1" /><g
     inkscape:label="Layer 1"
     inkscape:groupmode="layer"
     id="layer1"
     transform="translate(-43.416562,-146.66726)"><g
       id="g65"><g
         id="g66"><rect
           style="fill:#ffffff;fill-opacity:1;stroke:none;stroke-width:2.17619;stroke-linecap:round;stroke-linejoin:round;stroke-dasharray:none"
           id="rect64"
           width="127.82381"
           height="127.82381"
           x="43.416565"
           y="146.66727"
           ry="14.394383" /><g
           id="g64"
           inkscape:export-filename="YT_wb.png"
           inkscape:export-xdpi="96"
           inkscape:export-ydpi="96"
           transform="translate(0.09371332,26.984145)"><g
             id="g63"><rect
               style="fill:#ffffff;stroke:#000000;stroke-width:2.24881;stroke-linecap:round;stroke-linejoin:round;stroke-dasharray:none"
               id="rect60"
               width="46.311398"
               height="30.343103"
               x="83.688812"
               y="196.69901"
               ry="5.0137591" /><g
               id="g62"><g
                 id="g61"
                 transform="translate(43.48521,-50.00625)"><rect
                   style="fill:#ff0000;stroke:none;stroke-width:1.96854;stroke-linecap:round;stroke-linejoin:round;stroke-dasharray:none"
                   id="rect61"
                   width="41.740681"
                   height="25.797159"
                   x="42.488964"
                   y="248.97823"
                   ry="4.2626081" /></g><path
                 sodipodi:type="star"
                 style="fill:#ffffff;stroke:none;stroke-width:2.5;stroke-linecap:round;stroke-linejoin:round;stroke-dasharray:none"
                 id="path61"
                 inkscape:flatsided="true"
                 sodipodi:sides="3"
                 sodipodi:cx="87.205772"
                 sodipodi:cy="109.00722"
                 sodipodi:r1="7.6737189"
                 sodipodi:r2="3.8368595"
                 sodipodi:arg1="0.52359878"
                 sodipodi:arg2="1.5707963"
                 inkscape:rounded="0.1"
                 inkscape:randomized="0"
                 d="m 93.851408,112.84408 c -0.664564,1.15105 -12.626708,1.15105 -13.291271,0 -0.664564,-1.15106 5.316508,-11.51058 6.645635,-11.51058 1.329128,0 7.310199,10.35952 6.645636,11.51058 z"
                 inkscape:transform-center-x="-1.7600195"
                 transform="matrix(0,0.91742727,-0.91742727,0,205.48669,131.8656)"
                 inkscape:transform-center-y="-3.5638901e-06" /></g></g><path
             id="path63"
             style="fill:#ff0000;fill-opacity:1;stroke:#000000;stroke-width:2;stroke-linecap:round;stroke-linejoin:round;stroke-dasharray:none"
             d="m 107.23502,138.42879 c -25.957361,-1.3e-4 -47.000074,21.04235 -47.000234,46.99971 0.0528,2.92403 0.378393,5.83674 0.97255,8.70025 -4.283106,0.91238 -7.478096,4.69837 -7.478096,9.26145 v 15.8967 c 0,5.24885 4.225518,9.47436 9.474357,9.47436 h 7.628991 c 5.24884,0 9.474358,-4.22551 9.474358,-9.47436 v -15.8967 c 0,-5.24885 -4.225518,-9.47436 -9.474358,-9.47436 h -2.52491 c -0.659976,-2.78263 -1.019634,-5.62801 -1.072803,-8.48734 -7.7e-5,-22.0915 17.908644,-40.00022 40.000145,-40.00014 22.0913,2.1e-4 39.9997,17.90884 39.99962,40.00014 -0.0203,2.85572 -0.34632,5.70106 -0.97255,8.48734 h -3.41892 c -5.24884,0 -9.47435,4.22551 -9.47435,9.47436 v 15.8967 c 0,5.24885 4.22551,9.47436 9.47435,9.47436 h 8.42274 c 5.24884,0 9.47436,-4.22551 9.47436,-9.47436 v -15.8967 c 0,-4.52316 -3.14092,-8.27889 -7.36751,-9.23303 0.55878,-2.87633 0.84736,-5.79861 0.86197,-8.72867 -1.6e-4,-25.95716 -21.04255,-46.99955 -46.99971,-46.99971 z"
             sodipodi:nodetypes="sccssssssscccccsssssssccs" /></g></g></g></g></svg>
